<svg width="44" height="44" fill="none" xmlns="http://www.w3.org/2000/svg"><path d="m35.771 4.846-4.156 4.82c-5.625-4.342-13.578-4.456-19.236 0l-4.156-4.82c7.99-6.456 19.545-6.465 27.548 0Z" fill="#62e556"/><path d="M6.807 6.086c.089-.08.17-.172.267-.247 1.382 1.605 2.765 3.207 4.145 4.812-.04.061-.098.106-.148.159-3.716 3.655-5.388 8.8-4.462 13.988a15.11 15.11 0 0 0 1.75 4.857l8.568-8.297 4.25-9.15c.065 4.627-.01 9.26.003 13.89l-8.604 8.378c5.308 4.13 13.659 4.272 18.894-.042l-8.55-8.337c-.196-4.43.002-9.38.007-13.869l4.245 9.13 8.49 8.225c.076-.103.123-.22.187-.331.42-.801.77-1.639 1.046-2.498 1.764-5.536.311-11.669-3.817-15.791-.1-.106-.217-.198-.306-.312 1.36-1.619 2.765-3.216 4.148-4.815a22.027 22.027 0 0 1 4.6 26.314 21.767 21.767 0 0 1-1.98 3.124 21.73 21.73 0 0 1-5.063 4.84c-8.104 5.577-19.07 5.149-26.636-1.271a21.688 21.688 0 0 1-3.36-3.527c-6.705-8.84-5.854-21.494 2.325-29.23Z" fill="#EAEAEA"/></svg>